<ttFont>
<head>
    <!-- Most of this table will be recalculated by the compiler -->
    <tableVersion value="1.0"/>
    <fontRevision value="0.84999"/>
    <checkSumAdjustment value="0x1db95b47"/>
    <magicNumber value="0x5f0f3cf5"/>
    <flags value="00000000 00000011"/>
    <unitsPerEm value="1000"/>
    <created value="Wed Sep  1 18:35:57 2021"/>
    <modified value="Wed Sep  1 18:35:57 2021"/>
    <xMin value="-117"/>
    <yMin value="-216"/>
    <xMax value="578"/>
    <yMax value="1024"/>
    <macStyle value="00000000 00000000"/>
    <lowestRecPPEM value="7"/>
    <fontDirectionHint value="2"/>
    <indexToLocFormat value="0"/>
    <glyphDataFormat value="0"/>
  </head>
          <CharString index="0">
            800 rmoveto
            return
          </CharString>
          <CharString index="1">
            -99 callsubr
            vhcurveto
            return
          </CharString>
          <CharString index="2">
            -47 -24 -30 -59 return
          </CharString>
          <CharString index="3">
            -105 callsubr
            hvcurveto
            return
          </CharString>
          <CharString index="4">
            151 -63 63 return
          </CharString>
          <CharString index="5">
            88 172 88 hstem
            90 420 vstem
            90 return
          </CharString>
          <CharString index="6">
            0 89 420 89 return
          </CharString>
          <CharString index="7">
            848 -20 hstem
            return
          </CharString>
          <CharString index="8">
            -58 24 -31 47 return
          </CharString>
          <CharString index="9">
            598 rmoveto
            -89 return
          </CharString>
          <CharString index="10">
            rmoveto
            424 88 -424 hlineto
            return
          </CharString>
          <CharString index="11">
            392 hstem
            104 392 vstem
            439 return
          </CharString>
          <CharString index="12">
            79 hlineto
            47 5 17 25 26 return
          </CharString>
          <CharString index="13">
            187 204 rmoveto
            -99 hlineto
            return
          </CharString>
          <CharString index="14">
            58 23 -114 102 hhcurveto
            return
          </CharString>
          <CharString index="15">
            0 96 608 96 hstem
            return
          </CharString>
          <CharString index="16">
            rmoveto
            150 41 77 80 return
          </CharString>
          <CharString index="17">
            21 -21 800 -20 hstem
            return
          </CharString>
          <CharString index="18">
            96 236 96 return
          </CharString>
          <CharString index="19">
            hlineto
            40 206 rlineto
            return
          </CharString>
          <CharString index="20">
            hlineto
            -40 -206 rlineto
            return
          </CharString>
          <CharString index="21">
            74 -25 35 -55 vhcurveto
            return
          </CharString>
          <CharString index="22">
            -15 89 450 89 return
          </CharString>
          <CharString index="23">
            rmoveto
            -73 callsubr
            -95 callsubr
            hhcurveto
            hintmask 01111100
            -93 callsubr
            hintmask 01011100
            -310 -192 rmoveto
            -95 callsubr
            -93 callsubr
            hintmask 11011100
            -73 callsubr
            endchar
          </CharString>
          <CharString index="24">
            -78 callsubr
            hintmask 11001000
            -104 callsubr
            hintmask 10101000
            -106 callsubr
            140 -170 -50 callsubr
            hintmask 10110000
            -105 callsubr
            -99 callsubr
            hvcurveto
            hintmask 10101000
            -47 callsubr
            endchar
          </CharString>
          <CharString index="25">
            -85 callsubr
            hstem
            80 94 252 94 vstem
            300 -15 rmoveto
            142 78 112 203 202 -78 111 -142 -142 -78 -111 -202 -203 78 -112 142 hvcurveto
            -126 315 rmoveto
            148 43 76 83 83 43 -76 -148 -150 -43 -76 -83 -83 -43 76 150 vhcurveto
            endchar
          </CharString>
          <CharString index="26">
            -8 178 -155 -21 hstemhm
            229 -103 callsubr
            hintmask 01010000
            300 -8 -68 callsubr
            hintmask 10010000
            -86 callsubr
            hintmask 10100000
            -104 callsubr
            hintmask 01010000
            -106 callsubr
            endchar
          </CharString>
          <CharString index="27">
            -15 93 645 92 hstem
            62 100 276 100 vstem
            300 -15 rmoveto
            162 76 133 282 -51 callsubr
            -282 76 -133 162 hvcurveto
            -138 415 rmoveto
            224 42 99 96 return
          </CharString>
          <CharString index="28">
            rmoveto
            206 hlineto
            -80 -172 rlineto
            -126 -88 85 hlineto
            -78 -166 rlineto
            88 hlineto
            78 166 rlineto
            247 88 -206 hlineto
            80 172 rlineto
            126 88 -85 hlineto
            78 166 rlineto
            -88 hlineto
            -78 -166 rlineto
            -247 hlineto
            endchar
          </CharString>
          <CharString index="29">
            -68 callsubr
            -86 callsubr
            return
          </CharString>
          <CharString index="30">
            -97 callsubr
            138 -205 -59 callsubr
            321 vmoveto
            -55 callsubr
            endchar
          </CharString>
          <CharString index="31">
            rmoveto
            -60 callsubr
            hintmask 01100000
            -75 -45 -53 -103 -10 hvcurveto
            -95 callsubr
            hhcurveto
            hintmask 11010000
            -93 callsubr
            endchar
          </CharString>
          <CharString index="32">
            rmoveto
            57 57 -139 139 139 139 -57 57 -139 -139 -139 139 -57 -57 139 -139 -139 -139 57 -57 139 139 rlineto
            endchar
          </CharString>
          <CharString index="33">
            110 -98 callsubr
            222 -535 vlineto
            -65 -28 -35 -50 -48 -28 28 52 -4 vhcurveto
            -94 hlineto
            -106 7 64 -63 103 hhcurveto
            109 65 70 119 hvcurveto
            624 vlineto
            return
          </CharString>
          <CharString index="34">
            -60 callsubr
            hintmask 01011100
            -75 -45 -53 -103 -10 hvcurveto
            return
          </CharString>
          <CharString index="35">
            rmoveto
            -124 vlineto
            384 -234 rlineto
            101 vlineto
            -314 190 rlineto
            10 vlineto
            314 190 rlineto
            101 vlineto
            endchar
          </CharString>
          <CharString index="36">
            rmoveto
            124 vlineto
            -384 234 rlineto
            -101 vlineto
            314 -190 rlineto
            -10 vlineto
            -314 -190 rlineto
            -101 vlineto
            endchar
          </CharString>
          <CharString index="37">
            -91 callsubr
            -43 callsubr
            -80 -41 77 150 vhcurveto
            endchar
          </CharString>
          <CharString index="38">
            -122 168 -59 callsubr
            endchar
          </CharString>
          <CharString index="39">
            rmoveto
            -47 callsubr
            -28 callsubr
            return
          </CharString>
          <CharString index="40">
            -6 -6 -1 -1 -5 hvcurveto
            8 65 32 55 57 52 rrcurveto
            -103 hlineto
            -39 -64 -18 -76 -99 vvcurveto
            return
          </CharString>
          <CharString index="41">
            44 -8 rlineto
            64 -11 34 -42 -70 vvcurveto
            -91 -39 -49 -73 -78 -41 39 84 -7 vhcurveto
            endchar
          </CharString>
          <CharString index="42">
            -90 vlineto
            -118 -20 -65 -110 -183 vvcurveto
            -183 65 -108 118 -18 vhcurveto
            return
          </CharString>
          <CharString index="43">
            -15 83 169 83 160 83 169 83 -37 callsubr
            return
          </CharString>
          <CharString index="44">
            rmoveto
            -51 24 -28 47 47 24 28 51 53 -24 27 -47 -47 -24 -27 -53 vhcurveto
            endchar
          </CharString>
          <CharString index="45">
            356 88 hstem
            88 424 vstem
            88 356 -97 callsubr
            endchar
          </CharString>
          <CharString index="46">
            306 88 hstem
            88 424 vstem
            88 306 -97 callsubr
            endchar
          </CharString>
          <CharString index="47">
            75 45 53 103 10 hvcurveto
            -79 hlineto
            -47 -5 -17 -25 -26 -58 -23 114 -102 hhcurveto
            return
          </CharString>
          <CharString index="48">
            rmoveto
            -55 callsubr
            return
          </CharString>
          <CharString index="49">
            rmoveto
            -27 callsubr
            -105 callsubr
            -99 callsubr
            hvcurveto
            return
          </CharString>
          <CharString index="50">
            rmoveto
            420 88 -420 hlineto
            -348 vmoveto
            420 88 -420 hlineto
            endchar
          </CharString>
          <CharString index="51">
            84 30 84 36 -32 callsubr
            hintmask 01111100
            390 return
          </CharString>
          <CharString index="52">
            -47 30 -29 44 44 30 29 47 48 -30 29 -44 -44 -30 -29 -48 vhcurveto
            return
          </CharString>
          <CharString index="53">
            -91 -8 -38 -47 -66 hhcurveto
            -82 -42 75 147 150 44 78 86 hvcurveto
            return
          </CharString>
          <CharString index="54">
            hlineto
            hintmask 11100000
            -144 -89 384 89 hlineto
            hintmask 11010000
            -144 return
          </CharString>
          <CharString index="55">
            153 40 88 40 153 hstem
            226 148 vstem
            88 return
          </CharString>
          <CharString index="56">
            282 -76 133 -162 -162 -76 -133 -282 return
          </CharString>
          <CharString index="57">
            rmoveto
            -28 callsubr
            -86 callsubr
            return
          </CharString>
          <CharString index="58">
            -44 8 rlineto
            -64 11 -34 42 70 vvcurveto
            92 42 50 77 vhcurveto
            return
          </CharString>
          <CharString index="59">
            -32 callsubr
            hintmask 11010000
            390 return
          </CharString>
          <CharString index="60">
            6 6 1 1 5 hvcurveto
            -8 -65 -32 -55 -57 -52 rrcurveto
            return
          </CharString>
          <CharString index="61">
            -179 -21 185 87 454 72 -72 87 hstemhm
            return
          </CharString>
          <CharString index="62">
            -43 callsubr
            hvcurveto
            return
          </CharString>
          <CharString index="63">
            -15 87 -72 72 454 87 235 -20 hstemhm
            return
          </CharString>
          <CharString index="64">
            80 41 -77 -150 -150 -41 -77 -80 return
          </CharString>
          <CharString index="65">
            18 -382 rlineto
            70 hlineto
            18 382 rlineto
            return
          </CharString>
          <CharString index="66">
            87 vlineto
            114 13 64 83 138 vvcurveto
            return
          </CharString>
          <CharString index="67">
            -87 vlineto
            -115 -15 -66 -83 -138 vvcurveto
            return
          </CharString>
          <CharString index="68">
            -147 83 -83 1054 -83 83 hstemhm
            return
          </CharString>
          <CharString index="69">
            -100 callsubr
            111 378 vstem
            return
          </CharString>
          <CharString index="70">
            hstemhm
            62 86 81 85 -28 85 81 86 return
          </CharString>
          <CharString index="71">
            300 -8 rmoveto
            47 24 31 58 hvcurveto
            return
          </CharString>
          <CharString index="72">
            178 0 -20 hstemhm
            229 142 return
          </CharString>
          <CharString index="73">
            592 hstem
            422 70 vstem
            492 return
          </CharString>
          <CharString index="74">
            592 hstem
            108 70 vstem
            108 return
          </CharString>
          <CharString index="75">
            84 30 84 hstemhm
            80 79 282 79 return
          </CharString>
          <CharString index="76">
            67 40 -53 -103 8 hvcurveto
            90 hlineto
            return
          </CharString>
          <CharString index="77">
            108 598 rmoveto
            -598 96 return
          </CharString>
          <CharString index="78">
            78 40 -46 -97 8 hvcurveto
            99 hlineto
            return
          </CharString>
          <CharString index="79">
            103 hlineto
            39 64 18 76 99 vvcurveto
            return
          </CharString>
          <CharString index="80">
            47 24 31 58 59 -24 30 -47 return
          </CharString>
          <CharString index="81">
            rmoveto
            -86 454 86 vlineto
            endchar
          </CharString>
          <CharString index="82">
            rmoveto
            -86 508 86 vlineto
            endchar
          </CharString>
          <CharString index="83">
            304 96 -404 hlineto
            endchar
          </CharString>
          <CharString index="84">
            -80 -41 77 150 hvcurveto
            endchar
          </CharString>
          <CharString index="85">
            -224 -42 -98 -96 return
          </CharString>
        <CharString name=".notdef">
          418 -200 72 35 49 35 24 35 49 35 63 35 25 59 23 35 25 34 39 -28 28 35 28 36 38 35 28 34 39 35 70 hstemhm
          98 77 -77 78 -78 147 -147 217 -105 35 -35 221 -151 35 -35 151 -81 81 hintmask 111111111011111100010101
          431 850 rmoveto
          -333 -1050 333 hlineto
          -256 72 rmoveto
          35 vlineto
          74 49 rlineto
          -74 35 175 -35 -34 hlineto
          -73 -49 rlineto
          107 -35 hlineto
          -175 143 rmoveto
          119 175 -119 vlineto
          -175 182 rmoveto
          119 35 -84 105 49 vlineto
          hintmask 000001100000000001000010
          -35 -24 -35 59 hlineto
          hintmask 000010110100000100000101
          105 -119 hlineto
          -175 142 rmoveto
          35 140 70 35 -105 vlineto
          -175 60 rmoveto
          hintmask 000000011011110100000101
          34 70 39 -70 35 175 -35 -70 -73 vlineto
          -105 136 rmoveto
          109 105 -73 70 -36 vlineto
          -175 137 rmoveto
          34 vlineto
          hintmask 000000000000111010000001
          70 39 -69 35 174 -35 -70 -39 70 -34 hlineto
          hintmask 000100000000000000001000
          -140 -622 rmoveto
          hintmask 000100000000000000100000
          105 49 hlineto
          hintmask 000100000000000000001000
          -105 hlineto
          hintmask 000000000001000000010000
          472 vmoveto
          hintmask 000000000001000001000000
          35 38 hlineto
          hintmask 000000000001000000010000
          -35 hlineto
          endchar
        </CharString>
        <CharString name="A">
          21 -21 283 92 341 84 0 -20 hstemhm
          51 498 hintmask 11011000
          445 hmoveto
          104 hlineto
          -171 800 rlineto
          -156 hlineto
          -171 -800 rlineto
          100 hlineto
          58 283 rlineto
          178 hlineto
          -159 92 rmoveto
          hintmask 11101000
          70 341 70 -341 rlineto
          endchar
        </CharString>
        <CharString name="B">
          0 96 259 93 256 96 hstemhm
          108 100 228 98 -92 98 hintmask 11110100
          302 -107 callsubr
          -194 -800 188 hlineto
          hintmask 11111000
          153 85 77 140 98 -43 58 -83 14 hvcurveto
          28 vlineto
          hintmask 11110100
          87 15 45 57 97 vvcurveto
          139 -85 77 -153 vhcurveto
          -94 -704 rmoveto
          hintmask 11111000
          259 88 vlineto
          92 48 -44 -86 -85 -48 -44 -92 hvcurveto
          -88 352 rmoveto
          256 94 vlineto
          hintmask 11110100
          92 48 -43 -85 -85 -48 -43 -92 hvcurveto
          endchar
        </CharString>
        <CharString name="C">
          -15 95 640 95 hstemhm
          83 99 250 97 -87 97 hintmask 11110000
          312 -15 rmoveto
          132 70 86 183 15 hvcurveto
          -97 hlineto
          -120 -11 -36 -54 -73 hhcurveto
          -91 -39 98 222 222 42 98 96 hvcurveto
          hintmask 11101000
          72 38 -58 -131 12 hvcurveto
          97 hlineto
          193 -15 -71 91 -133 hhcurveto
          -161 -76 -133 -282 hvcurveto
          hintmask 11110000
          -282 73 -133 156 vhcurveto
          endchar
        </CharString>
        <CharString name="D">
          -92 callsubr
          88 100 248 100 vstem
          88 hmoveto
          178 hlineto
          183 87 128 272 272 -87 128 -183 hvcurveto
          -178 hlineto
          100 -704 rmoveto
          608 78 vlineto
          116 54 -97 -207 -207 -54 -97 -116 hvcurveto
          endchar
        </CharString>
        <CharString name="E">
          0 96 261 92 255 96 hstem
          130 100 vstem
          130 hmoveto
          384 96 -284 261 254 92 -254 255 -24 callsubr
        </CharString>
        <CharString name="Euro">
          -15 95 198 80 91 81 190 95 hstemhm
          126 96 218 96 -83 96 hintmask 11111100
          340 -15 rmoveto
          122 66 83 164 8 hvcurveto
          -96 hlineto
          -105 -8 -30 -47 -62 hhcurveto
          -65 -36 62 136 -12 hvcurveto
          161 80 -166 42 hlineto
          17 0 16 1 16 vhcurveto
          165 81 -160 hlineto
          131 13 38 59 65 hhcurveto
          hintmask 11111010
          68 32 -53 -119 9 hvcurveto
          96 hlineto
          178 -9 -69 89 -127 hhcurveto
          -123 -69 -92 -193 -20 hvcurveto
          -92 -81 87 hlineto
          -1 -49 rlineto
          -14 0 -14 1 -14 vhcurveto
          -87 -80 91 hlineto
          hintmask 11111100
          -199 19 68 -94 122 hhcurveto
          endchar
        </CharString>
        <CharString name="F">
          21 -21 343 96 265 96 hstem
          140 100 vstem
          140 hmoveto
          100 343 264 96 -264 265 -24 callsubr
        </CharString>
        <CharString name="G">
          -15 92 -77 77 221 96 326 95 hstemhm
          72 100 125 207 -84 84 -78 78 -73 98 hintmask 1011101000000000
          276 -15 rmoveto
          62 38 28 59 16 hvcurveto
          hintmask 0111101000000000
          28 -72 84 394 hlineto
          hintmask 1011110000000000
          -207 -96 hlineto
          hintmask 1011100100000000
          129 hlineto
          -153 -15 -36 -68 -67 hhcurveto
          -95 -41 99 224 222 43 98 97 hvcurveto
          hintmask 1011100010000000
          72 37 -52 -117 10 hvcurveto
          98 hlineto
          180 -14 -69 84 -134 hhcurveto
          -163 -77 -133 -282 hvcurveto
          hintmask 1011101000000000
          -276 68 -139 136 vhcurveto
          endchar
        </CharString>
        <CharString name="H">
          21 -21 357 92 351 -20 hstem
          88 100 224 100 vstem
          88 800 rmoveto
          -800 100 357 224 -357 100 800 -100 -351 -224 351 vlineto
          endchar
        </CharString>
        <CharString name="I">
          -92 callsubr
          250 100 vstem
          108 hmoveto
          384 96 -142 608 142 96 -384 -96 142 -608 -142 hlineto
          endchar
        </CharString>
        <CharString name="J">
          -15 96 623 96 hstem
          88 98 209 99 vstem
          290 -15 rmoveto
          131 73 79 142 hvcurveto
          594 -352 -96 253 -498 vlineto
          -82 -36 -43 -69 -68 -36 43 82 vhcurveto
          144 -98 -144 vlineto
          -142 73 -79 129 vhcurveto
          endchar
        </CharString>
        <CharString name="K">
          -90 callsubr
          120 100 vstem
          120 -107 callsubr
          -800 100 338 vlineto
          216 -338 rlineto
          115 hlineto
          -252 390 262 410 rlineto
          -109 hlineto
          -232 -365 rlineto
          365 vlineto
          endchar
        </CharString>
        <CharString name="L">
          0 96 704 -20 hstem
          154 100 vstem
          154 hmoveto
          386 96 -286 704 -100 hlineto
          endchar
        </CharString>
        <CharString name="M">
          21 -21 274 69 370 87 hstem
          66 95 278 95 vstem
          66 hmoveto
          95 438 hlineto
          -7 275 rlineto
          10 hlineto
          67 -439 rlineto
          138 hlineto
          67 439 rlineto
          10 hlineto
          -7 -275 rlineto
          -438 95 800 -160 vlineto
          -66 -457 rlineto
          -9 hlineto
          -67 457 rlineto
          -166 hlineto
          endchar
        </CharString>
        <CharString name="N">
          0 79 642 79 hstem
          88 100 224 100 vstem
          88 hmoveto
          100 445 hlineto
          -7 276 rlineto
          9 hlineto
          141 -721 rlineto
          181 800 -100 -445 hlineto
          7 -276 rlineto
          -9 hlineto
          -141 721 rlineto
          -181 hlineto
          endchar
        </CharString>
        <CharString name="O">
          -80 callsubr
          96 42 -99 -224 -22 callsubr
          -96 -42 98 224 vhcurveto
          endchar
        </CharString>
        <CharString name="P">
          21 -21 337 91 276 96 hstem
          119 99 235 100 vstem
          119 hmoveto
          99 337 97 hlineto
          147 91 87 143 144 -91 89 -147 hvcurveto
          -196 hlineto
          99 -372 rmoveto
          276 101 vlineto
          83 51 -52 -86 -86 -51 -52 -83 hvcurveto
          endchar
        </CharString>
        <CharString name="Q">
          -194 -21 200 93 645 92 hstem
          62 100 120 32 124 100 vstem
          300 78 rmoveto
          -96 -42 98 224 224 42 99 96 96 42 -99 -224 -224 -42 -98 -96 hvcurveto
          -238 322 rmoveto
          -271 70 -134 150 -9 vhcurveto
          -80 vlineto
          236 -121 rlineto
          96 vlineto
          -204 104 rlineto
          153 8 71 134 273 vvcurveto
          -51 callsubr
          vhcurveto
          endchar
        </CharString>
        <CharString name="R">
          21 -21 348 89 267 96 hstem
          106 100 236 100 vstem
          106 hmoveto
          100 348 68 hlineto
          173 -348 rlineto
          112 hlineto
          -185 357 rlineto
          106 26 62 76 112 vvcurveto
          143 -95 86 -157 vhcurveto
          -184 hlineto
          100 -363 rmoveto
          267 87 vlineto
          95 54 -48 -85 -86 -54 -48 -95 hvcurveto
          endchar
        </CharString>
        <CharString name="S">
          -15 96 638 96 hstemhm
          95 100 230 100 -85 99 hintmask 11110000
          -94 callsubr
          -145 11 76 -74 138 hhcurveto
          135 77 85 151 123 -67 79 -121 23 hvcurveto
          -49 callsubr
          hintmask 11101000
          -29 callsubr
          155 -10 -79 84 -136 hhcurveto
          -139 -80 -86 -152 -123 67 -79 121 -23 hvcurveto
          hintmask 11110000
          -66 callsubr
        </CharString>
        <CharString name="T">
          21 -21 704 96 hstem
          250 100 vstem
          250 hmoveto
          100 704 182 96 -464 -96 182 hlineto
          endchar
        </CharString>
        <CharString name="U">
          -15 96 719 -20 hstem
          82 100 236 100 vstem
          82 -107 callsubr
          -574 vlineto
          -154 78 -87 140 140 78 87 154 vhcurveto
          574 -100 -574 vlineto
          -95 -40 -50 -78 -78 -40 50 95 vhcurveto
          574 vlineto
          endchar
        </CharString>
        <CharString name="V">
          0 84 -63 -21 800 -20 hstemhm
          51 498 hintmask 01110000
          155 -107 callsubr
          -104 hlineto
          171 -800 rlineto
          156 hlineto
          171 800 rlineto
          -100 hlineto
          hintmask 10110000
          -147 -716 rlineto
          endchar
        </CharString>
        <CharString name="W">
          0 132 -132 143 -122 -21 479 119 0 -20 222 -20 hstemhm
          26 548 hintmask 00101110
          130 -107 callsubr
          -104 hlineto
          80 -800 rlineto
          142 hlineto
          hintmask 00110110
          52 479 49 -479 rlineto
          145 hlineto
          80 800 rlineto
          -101 hlineto
          hintmask 01001110
          -53 -657 -46 455 rlineto
          -141 hlineto
          hintmask 10001110
          -50 -466 rlineto
          endchar
        </CharString>
        <CharString name="X">
          -90 callsubr
          53 494 vstem
          164 -107 callsubr
          -111 hlineto
          166 -414 -153 -386 rlineto
          108 hlineto
          126 332 122 -332 rlineto
          112 hlineto
          -153 386 166 414 rlineto
          -107 hlineto
          -140 -362 rlineto
          endchar
        </CharString>
        <CharString name="Y">
          -90 callsubr
          250 100 vstem
          152 -107 callsubr
          -109 hlineto
          207 -462 rlineto
          -338 100 338 vlineto
          207 462 rlineto
          -107 hlineto
          -149 -353 rlineto
          endchar
        </CharString>
        <CharString name="Z">
          -92 callsubr
          96 61 286 61 vstem
          96 hmoveto
          408 96 -347 hlineto
          347 537 rlineto
          167 -408 -96 347 vlineto
          -347 -537 rlineto
          endchar
        </CharString>
        <CharString name="_part.multiply">
          154 -96 callsubr
          154 rmoveto
          57 57 -335 335 -57 -57 rlineto
          endchar
        </CharString>
        <CharString name="a">
          -15 87 -72 72 452 89 hstemhm
          73 96 -73 98 190 96 hintmask 10110100
          73 400 rmoveto
          96 hlineto
          79 8 44 45 71 hhcurveto
          60 32 -38 -74 hvcurveto
          -46 vlineto
          -123 -25 rlineto
          hintmask 10101100
          -108 -22 -57 -67 -103 vvcurveto
          -98 60 -66 89 55 42 28 49 14 vhcurveto
          hintmask 01110100
          28 -62 96 429 hlineto
          118 -68 66 -120 vhcurveto
          hintmask 10110100
          -127 -82 -80 -133 -10 hvcurveto
          hintmask 10101100
          121 -243 rmoveto
          53 32 36 55 11 vhcurveto
          103 21 rlineto
          -57 vlineto
          -85 -48 -64 -63 -50 -29 32 53 vhcurveto
          endchar
        </CharString>
        <CharString name="ampersand">
          -15 96 638 96 hstemhm
          78 102 -49 94 104 93 3 85 -69 81 hintmask 11011000
          194 481 rmoveto
          20 -31 rlineto
          hintmask 11101010
          -66 -67 -70 -71 -123 vvcurveto
          -122 73 -82 111 76 60 40 77 43 vhcurveto
          81 -125 rlineto
          145 vlineto
          hintmask 11100100
          -45 71 18 62 11 74 4 86 rlinecurve
          -85 hlineto
          -46 -3 -42 -5 -37 vhcurveto
          hintmask 11011000
          -95 152 rlineto
          53 59 47 63 90 vvcurveto
          100 -54 61 -89 -92 -56 -61 -100 -53 19 -52 44 -68 vhcurveto
          hintmask 11101000
          -14 -289 rmoveto
          76 37 56 45 52 vhcurveto
          128 -196 rlineto
          -65 -26 -41 -34 -53 hhcurveto
          -54 -36 44 67 hvcurveto
          hintmask 11011000
          45 454 rmoveto
          45 21 28 33 31 19 -28 -45 -52 -22 -41 -31 -37 vhcurveto
          -16 26 rlineto
          -25 39 -10 32 33 vvcurveto
          endchar
        </CharString>
        <CharString name="approxequal">
          134 -56 callsubr
          368 -84 callsubr
        </CharString>
        <CharString name="approxequal.case">
          184 -56 callsubr
          418 -84 callsubr
        </CharString>
        <CharString name="asciicircum">
          543 272 -75 75 hstemhm
          103 394 hintmask 10100000
          103 543 rmoveto
          95 hlineto
          hintmask 01100000
          102 197 rlineto
          hintmask 10100000
          102 -197 rlineto
          95 hlineto
          -149 272 rlineto
          -96 hlineto
          endchar
        </CharString>
        <CharString name="asciitilde">
          251 -48 callsubr
          251 -76 callsubr
        </CharString>
        <CharString name="asciitilde.case">
          301 -48 callsubr
          301 -76 callsubr
        </CharString>
        <CharString name="asterisk">
          610 -20 225 -20 hstem
          256.5 87 vstem
          250 815 rmoveto
          13 -177 -164 67 -31 -95 172 -42 -114 -136 80 -59 94 152 94 -152 80 59 -114 136 172 42 -31 95 -164 -67 13 177 rlineto
          endchar
        </CharString>
        <CharString name="at">
          -132 73 213 19 334 19 214 75 hstemhm
          66 79 89 80 141 77 -73 73 -69 69 hintmask 1111110100000000
          329 -132 rmoveto
          48 34 10 21 24 hvcurveto
          72 vlineto
          -20 -24 -34 -10 -48 hhcurveto
          -125 -59 128 271 272 57 128 122 hvcurveto
          hintmask 1111111000000000
          89 42 -67 -143 hvcurveto
          -4 -28 vlineto
          40 -8 -23 18 -42 hhcurveto
          -81 -39 -78 -166 -166 39 -78 81 hvcurveto
          hintmask 1111110010000000
          47 26 18 40 8 hvcurveto
          28 -43 hlineto
          hintmask 1111110100000000
          69 419 hlineto
          194 -66 91 -142 -175 -83 -152 -323 -321 84 -151 179 vhcurveto
          -15 472 rmoveto
          114 23 53 49 50 23 -53 -114 -114 -23 -53 -50 -49 -23 53 114 vhcurveto
          endchar
        </CharString>
        <CharString name="b">
          -44 callsubr
          104 90 -90 -89 callsubr
          hintmask 10110110
          348 -15 rmoveto
          119 65 112 202 202 -65 112 -119 -61 -43 -30 -54 -16 hvcurveto
          -28 319 -96 hlineto
          hintmask 01110110
          -848 96 vlineto
          hintmask 10110110
          68 28 vlineto
          -53 16 43 -30 61 hhcurveto
          hintmask 10111010
          -154 314 -70 callsubr
        </CharString>
        <CharString name="backslash">
          -38 callsubr
          111 848 rmoveto
          285 -1018 rlineto
          93 hlineto
          -285 1018 rlineto
          endchar
        </CharString>
        <CharString name="bar">
          860 -20 hstem
          259 82 vstem
          341 860 rmoveto
          -82 -920 82 hlineto
          endchar
        </CharString>
        <CharString name="braceleft">
          -39 callsubr
          213 62 5 88 -68 88 hintmask 00101000
          468 824 rmoveto
          83 vlineto
          -114 -8 -74 -74 -107 vvcurveto
          hintmask 01010000
          -52 20 -59 -55 vvcurveto
          -84 -27 -38 -60 1 vhcurveto
          -102 vlineto
          hintmask 01000100
          60 1 27 -38 -84 -55 -20 -59 -52 vvcurveto
          hintmask 10001000
          -107 74 -74 114 -8 vhcurveto
          83 vlineto
          -63 6 -37 36 56 62 20 70 62 vvcurveto
          hintmask 01010000
          88 -37 48 -76 9 vhcurveto
          14 vlineto
          hintmask 01000100
          76 9 37 48 88 vvcurveto
          hintmask 00101000
          62 -20 70 62 vvcurveto
          56 37 36 63 6 vhcurveto
          endchar
        </CharString>
        <CharString name="braceright">
          -39 callsubr
          212 88 -68 88 5 62 hintmask 00101000
          132 907 rmoveto
          -83 vlineto
          63 -6 37 -36 -56 -62 -20 -70 -62 vvcurveto
          hintmask 01000100
          -88 37 -48 76 -9 vhcurveto
          -14 vlineto
          hintmask 01010000
          -76 -9 -37 -48 -88 vvcurveto
          hintmask 10001000
          -62 20 -70 -62 vvcurveto
          -56 -37 -36 -63 -6 vhcurveto
          -83 vlineto
          114 8 74 74 107 vvcurveto
          hintmask 01000100
          52 -20 59 55 vvcurveto
          84 27 38 60 -1 vhcurveto
          102 vlineto
          hintmask 01010000
          -60 -1 -27 38 84 55 20 59 52 vvcurveto
          hintmask 00101000
          107 -74 74 -114 8 vhcurveto
          endchar
        </CharString>
        <CharString name="bracketleft">
          -138 82 872 82 hstemhm
          268 85 -85 200 hintmask 11010000
          468 898 rmoveto
          hintmask 11100000
          -200 -1036 hlineto
          hintmask 11010000
          200 82 hlineto
          hintmask 11100000
          -115 872 hlineto
          hintmask 11010000
          115 hlineto
          endchar
        </CharString>
        <CharString name="bracketright">
          -138 82 872 82 hstemhm
          132 200 -85 85 hintmask 11100000
          132 898 rmoveto
          -82 vlineto
          hintmask 11010000
          115 -872 hlineto
          hintmask 11100000
          -115 -82 hlineto
          hintmask 11010000
          200 1036 hlineto
          endchar
        </CharString>
        <CharString name="bullet">
          185 330 hstem
          135 330 vstem
          300 185 rmoveto
          108 57 57 108 108 -57 57 -108 -108 -57 -57 -108 -108 57 -57 108 hvcurveto
          endchar
        </CharString>
        <CharString name="c">
          -85 callsubr
          hstemhm
          96 94 236 90 -81 90 hintmask 11110000
          314 -15 rmoveto
          118 75 84 143 9 hvcurveto
          -90 hlineto
          -54 callsubr
          hintmask 11101000
          -31 callsubr
          153 -8 -76 92 -119 hhcurveto
          -145 -81 -113 -204 hvcurveto
          hintmask 11110000
          -200 78 -111 140 vhcurveto
          endchar
        </CharString>
        <CharString name="cent">
          8 -21 22 -21 621 -20 22 -20 hstemhm
          96 94 89 72 75 90 -81 90 hintmask 01011110
          279 -101 rmoveto
          72 89 hlineto
          97 16 60 81 8 127 rrcurveto
          -90 hlineto
          -6 -72 -26 -45 -43 -15 rrcurveto
          440 vlineto
          hintmask 01011101
          48 -15 29 -51 7 -86 rrcurveto
          90 hlineto
          -7 140 -65 89 -102 14 rrcurveto
          hintmask 10101110
          88 -72 -65 callsubr
          -89 309 rmoveto
          124 30 75 59 22 vhcurveto
          -438 vlineto
          -59 20 -30 73 124 vvcurveto
          endchar
        </CharString>
        <CharString name="cent.bold">
          -101 175 -66 -21 22 -21 536 175 -90 -20 22 -20 hstemhm
          96 94 89 72 75 90 -81 90 hintmask 0011001100000000
          279 699 rmoveto
          hintmask 0100101100000000
          -65 callsubr
          hintmask 1000011100000000
          -88 72 vlineto
          hintmask 0010011110000000
          89 vlineto
          97 16 60 81 8 127 rrcurveto
          -90 hlineto
          hintmask 1001001110000000
          -54 callsubr
          hintmask 0011001101000000
          -31 callsubr
          hintmask 0010011101000000
          -7 140 -65 89 -102 14 rrcurveto
          hintmask 0011001100000000
          88 vlineto
          endchar
        </CharString>
        <CharString name="colon">
          -8 178 -157 -21 435 -35 callsubr
          hintmask 01011000
          -36 callsubr
          hintmask 10011000
          59 -24 30 -47 -105 callsubr
          vhcurveto
          hintmask 01011000
          -106 callsubr
          hintmask 01101000
          -71 524 rmoveto
          -99 callsubr
          -27 callsubr
          vhcurveto
          hintmask 01011000
          -104 callsubr
          endchar
        </CharString>
        <CharString name="colon.case">
          93 178 257 178 hstem
          229 142 vstem
          300 93 -58 callsubr
          -71 524 rmoveto
          -58 24 -31 47 47 24 31 58 59 -24 30 -47 -105 callsubr
          vhcurveto
          endchar
        </CharString>
        <CharString name="comma">
          -81 callsubr
        </CharString>
        <CharString name="copyright">
          118 55 85 52 183 52 82 55 hstemhm
          62 55 70 54 108 55 -45 56 68 55 hintmask 1111111010000000
          300 118 rmoveto
          143 95 113 169 169 -95 113 -143 -143 -95 -113 -169 -169 95 -113 143 hvcurveto
          -183 282 rmoveto
          140 70 87 113 113 70 -87 -140 -140 -70 -87 -113 -113 -70 87 140 vhcurveto
          70 hmoveto
          -83 47 -59 67 57 40 42 64 6 vhcurveto
          -55 hlineto
          -33 -4 -19 -21 -25 hhcurveto
          -36 -24 36 54 58 23 35 39 hvcurveto
          hintmask 1111110110000000
          30 21 -24 -41 5 hvcurveto
          56 hlineto
          73 -8 -43 44 -61 hhcurveto
          hintmask 1111111010000000
          -70 -46 -57 -88 hvcurveto
          endchar
        </CharString>
        <CharString name="currency">
          140 79 262 79 41 -20 hstem
          90 79 262 79 vstem
          300 140 rmoveto
          45 43 14 25 34 hvcurveto
          80 -80 49 49 -80 80 rlineto
          25 34 14 43 45 vvcurveto
          45 -14 43 -25 34 vhcurveto
          80 80 -49 49 -80 -80 rlineto
          25 -34 -43 14 -45 hhcurveto
          -45 -43 -14 -25 -34 hvcurveto
          -80 80 -49 -49 80 -80 rlineto
          -25 -34 -14 -43 -45 vvcurveto
          -45 14 -43 25 -34 vhcurveto
          -80 -80 49 -49 80 80 rlineto
          -25 34 43 -14 45 hhcurveto
          -131 210 rmoveto
          72 59 59 72 72 59 -59 -72 -72 -59 -59 -72 -72 -59 59 72 vhcurveto
          endchar
        </CharString>
        <CharString name="d">
          -44 callsubr
          68 -89 callsubr
          -90 90 hintmask 10111100
          252 -15 rmoveto
          61 43 30 53 16 hvcurveto
          hintmask 01111100
          28 -68 96 848 -96 -319 -28 hlineto
          54 -16 -43 30 -61 hhcurveto
          -119 -65 -112 -202 hvcurveto
          hintmask 10111100
          -202 65 -112 119 vhcurveto
          -88 314 -91 callsubr
          vhcurveto
          hintmask 10111010
          -45 callsubr
          hintmask 10111100
          -23 callsubr
        </CharString>
        <CharString name="divide">
          113 -52 callsubr
          306 -77 callsubr
        </CharString>
        <CharString name="divide.case">
          163 -52 callsubr
          356 -77 callsubr
        </CharString>
        <CharString name="dollar">
          8 -21 826 -20 hstemhm
          88 99 -92 100 81 71 78 100 -85 99 hintmask 11101100
          -94 callsubr
          10 -131 63 -74 115 -12 rrcurveto
          -87 71 -41 callsubr
          120 -63 78 -115 25 vhcurveto
          272 vlineto
          hintmask 11011010
          56 -12 30 -46 7 -82 rrcurveto
          99 hlineto
          -9 142 -67 82 -116 13 rrcurveto
          87 -71 -40 callsubr
          -121 64 -78 117 -25 vhcurveto
          -269 vlineto
          hintmask 11101100
          -54 12 -29 38 -6 70 rrcurveto
          hintmask 11011100
          8 373 rmoveto
          76 28 47 53 14 vhcurveto
          -256 vlineto
          -53 15 -28 40 64 vvcurveto
          152 -492 rmoveto
          254 vlineto
          51 -16 27 -40 -62 vvcurveto
          -76 -27 -46 -51 -14 vhcurveto
          endchar
        </CharString>
        <CharString name="dollar.bold">
          -100 181 -73 -21 732 181 -87 -20 hstemhm
          95 100 81 71 78 100 -85 99 hintmask 10011110
          -94 callsubr
          hintmask 01011110
          10 -131 63 -74 115 -12 rrcurveto
          hintmask 10011110
          -87 71 vlineto
          hintmask 01101110
          -41 callsubr
          123 -67 79 -121 23 vhcurveto
          -49 callsubr
          hintmask 01101101
          -29 callsubr
          hintmask 01011101
          -9 142 -67 82 -116 13 rrcurveto
          hintmask 01101110
          87 -71 vlineto
          hintmask 10011110
          -40 callsubr
          -123 67 -79 121 -23 vhcurveto
          -66 callsubr
        </CharString>
        <CharString name="dotlessi">
          -101 callsubr
          hstemhm
          132 240 -96 96 hintmask 11100000
          132 -98 callsubr
          vlineto
          hintmask 11010000
          144 -420 -53 callsubr
          509 hlineto
          endchar
        </CharString>
        <CharString name="e">
          -15 87 196 84 174 87 hstemhm
          93 94 -94 95 230 90 hintmask 11101100
          93 304 rmoveto
          -212 73 -107 145 115 70 67 132 24 vhcurveto
          -90 hlineto
          -76 -18 -38 -36 -63 hhcurveto
          hintmask 11110100
          -78 -40 63 133 -6 hvcurveto
          319 hlineto
          1 13 1 20 16 vvcurveto
          196 -67 100 -132 vhcurveto
          hintmask 11101100
          -139 -77 -110 -199 hvcurveto
          95 48 rmoveto
          115 8 41 59 72 hhcurveto
          68 36 -56 -118 5 hvcurveto
          endchar
        </CharString>
        <CharString name="eight">
          -15 96 273 95 270 96 hstemhm
          55 101 -97 101 280 101 -97 101 hintmask 11101100
          300 449 rmoveto
          -87 -53 52 83 83 53 52 87 87 53 -52 -83 -83 -53 -52 -87 hvcurveto
          hintmask 11110010
          -245 -240 rmoveto
          -139 93 -85 152 152 93 85 139 93 -48 68 -77 18 vhcurveto
          28 vlineto
          hintmask 11101100
          75 17 46 67 93 vvcurveto
          138 -91 84 -150 -150 -91 -84 -138 -93 46 -67 75 -17 vhcurveto
          -28 vlineto
          hintmask 11110010
          -77 -18 -48 -68 -93 vvcurveto
          101 9 rmoveto
          85 55 51 89 89 55 -51 -85 -85 -55 -52 -89 -89 -55 52 85 vhcurveto
          endchar
        </CharString>
        <CharString name="ellipsis">
          -8 178 hstem
          43 121 76 120 76 120 vstem
          300 -8 rmoveto
          40 20 31 58 59 -20 30 -40 -39 -21 -30 -59 -58 21 -31 39 hvcurveto
          -257 89 rmoveto
          -58 21 -31 40 39 21 31 58 59 -21 30 -39 -40 -21 -30 -59 vhcurveto
          393 hmoveto
          -58 21 -31 39 40 20 31 58 59 -20 30 -40 -39 -21 -30 -59 vhcurveto
          endchar
        </CharString>
        <CharString name="emdash">
          307 86 hstem
          46 508 vstem
          46 393 -25 callsubr
        </CharString>
        <CharString name="emdash.case">
          357 86 hstem
          46 508 vstem
          46 443 -25 callsubr
        </CharString>
        <CharString name="endash">
          307 86 hstem
          73 454 vstem
          73 393 -26 callsubr
        </CharString>
        <CharString name="endash.case">
          357 86 hstem
          73 454 vstem
          73 443 -26 callsubr
        </CharString>
        <CharString name="equal">
          176 -102 callsubr
          436 -57 callsubr
        </CharString>
        <CharString name="equal.case">
          226 -102 callsubr
          486 -57 callsubr
        </CharString>
        <CharString name="exclam">
          -7 159 648 -20 hstemhm
          229 142 -121 100 hintmask 11010000
          250 -107 callsubr
          -582 100 582 vlineto
          hintmask 11100000
          -121 -728 -63 callsubr
        </CharString>
        <CharString name="f">
          21 -21 509 89 176 89 hstemhm
          122 205 -96 96 157 94 hintmask 11101100
          327 hmoveto
          509 174 89 -174 82 vlineto
          62 25 32 48 51 28 -28 -56 5 vhcurveto
          94 hlineto
          109 -7 -67 64 -104 hhcurveto
          -106 -63 -68 -115 hvcurveto
          -82 vlineto
          hintmask 11110100
          -109 -89 hlineto
          hintmask 11101100
          109 -509 hlineto
          endchar
        </CharString>
        <CharString name="five">
          -15 96 263 116 -23 93 174 96 hstemhm
          67 105 -79 99 244 101 hintmask 10110110
          93 800 rmoveto
          hintmask 11010110
          -456 89 vlineto
          hintmask 10110110
          60 23 44 33 58 hhcurveto
          83 46 -61 -112 -119 -46 -64 -85 hvcurveto
          hintmask 10111010
          -78 -47 55 102 -8 hvcurveto
          -105 hlineto
          -165 11 83 -88 144 hhcurveto
          152 80 97 182 173 -70 93 -133 hvcurveto
          hintmask 11010110
          -59 -40 -25 -45 -15 hvcurveto
          -28 244 331 96 hlineto
          endchar
        </CharString>
        <CharString name="four">
          21 -21 238 96 400 66 hstemhm
          45 87 216 99 -99 204 hintmask 11111000
          447 -107 callsubr
          -171 hlineto
          -231 -432 rlineto
          -130 303 -238 99 238 vlineto
          hintmask 11110100
          105 96 hlineto
          hintmask 11111000
          -105 hlineto
          -315 hmoveto
          216 400 rlineto
          -400 vlineto
          endchar
        </CharString>
        <CharString name="g">
          -215 89 157 87 408 72 -72 87 hstemhm
          73 96 230 96 -90 90 hintmask 11011100
          495 6 rmoveto
          hintmask 11101100
          592 -96 vlineto
          hintmask 11011100
          -64 -28 vlineto
          52 -15 -41 27 -65 hhcurveto
          -114 -63 -104 -187 -187 63 -104 114 65 41 27 52 15 hvcurveto
          28 -104 hlineto
          -88 -38 -44 -75 -68 -39 32 62 -6 vhcurveto
          -103 hlineto
          -118 9 77 -65 130 hhcurveto
          135 74 78 143 hvcurveto
          -326 316 rmoveto
          131 42 73 76 vhcurveto
          hintmask 11011010
          78 40 -69 -135 -135 -40 -69 -78 hvcurveto
          hintmask 11011100
          -76 -42 73 131 hvcurveto
          endchar
        </CharString>
        <CharString name="grave">
          -100 callsubr
          148 304 vstem
          148 848 rmoveto
          212 -264 rlineto
          92 hlineto
          -176 264 rlineto
          endchar
        </CharString>
        <CharString name="greater">
          54 -34 callsubr
          288 -71 callsubr
        </CharString>
        <CharString name="greater.case">
          104 -34 callsubr
          338 -71 callsubr
        </CharString>
        <CharString name="guillemotleft">
          54 592 hstemhm
          78 55 -55 238 -14 198 hintmask 10100000
          316 54 rmoveto
          127 vlineto
          hintmask 11010000
          -183 171 rlineto
          hintmask 10100000
          183 171 rlineto
          123 vlineto
          hintmask 11010000
          -238 -231 rlineto
          -132 vlineto
          224 4 rmoveto
          198 -170 rlineto
          118 vlineto
          -141 116 141 118 rlineto
          114 vlineto
          -198 -172 rlineto
          endchar
        </CharString>
        <CharString name="guillemotright">
          54 592 hstemhm
          100 198 -14 238 -55 55 hintmask 10100000
          284 54 rmoveto
          hintmask 11010000
          238 229 rlineto
          132 vlineto
          hintmask 10100000
          -238 231 rlineto
          -123 vlineto
          hintmask 11010000
          183 -171 rlineto
          hintmask 10100000
          -183 -171 rlineto
          hintmask 11010000
          -184 -64 rmoveto
          198 170 rlineto
          124 vlineto
          -198 172 rlineto
          -114 vlineto
          141 -118 -141 -116 rlineto
          endchar
        </CharString>
        <CharString name="h">
          21 -21 524 9 -9 89 235 -20 hstemhm
          108 96 203 96 hintmask 10111100
          108 848 rmoveto
          -848 96 388 vlineto
          92 33 44 68 69 33 -44 -92 vhcurveto
          -388 96 413 vlineto
          125 -56 75 -94 -62 -45 -30 -50 -14 vhcurveto
          hintmask 11011100
          -28 315 hlineto
          endchar
        </CharString>
        <CharString name="hyphen">
          -61 callsubr
        </CharString>
        <CharString name="hyphen.case">
          -62 callsubr
        </CharString>
        <CharString name="i">
          -101 callsubr
          92 153 hstemhm
          132 240 -122 148 -122 96 hintmask 11010000
          132 -98 callsubr
          vlineto
          hintmask 11000100
          144 -420 hlineto
          hintmask 11010000
          -144 -89 384 89 hlineto
          hintmask 11000100
          -144 509 hlineto
          hintmask 11101000
          -69 callsubr
        </CharString>
        <CharString name="j">
          -215 89 635 89 92 153 hstemhm
          80 94 132 148 -122 96 hintmask 11110100
          -74 callsubr
          hintmask 11111000
          -69 callsubr
        </CharString>
        <CharString name="k">
          21 -21 598 -20 270 -20 hstem
          123 96 vstem
          123 848 rmoveto
          -848 96 262 vlineto
          219 -262 rlineto
          117 hlineto
          -247 296 255 302 rlineto
          -113 hlineto
          -231 -276 rlineto
          526 vlineto
          endchar
        </CharString>
        <CharString name="l">
          0 89 670 89 hstemhm
          117 240 -96 96 hintmask 11100000
          117 848 rmoveto
          -89 vlineto
          hintmask 11010000
          144 -670 -53 callsubr
          759 hlineto
          endchar
        </CharString>
        <CharString name="less">
          54 -33 callsubr
          412 -72 callsubr
        </CharString>
        <CharString name="less.case">
          104 -33 callsubr
          462 -72 callsubr
        </CharString>
        <CharString name="m">
          21 -21 519 23 -23 25 54 -20 35 -20 hstemhm
          72 96 86 96 86 96 hintmask 10110111
          72 598 rmoveto
          -598 96 456 vlineto
          42 15 21 28 29 14 -21 -42 vhcurveto
          -456 96 vlineto
          hintmask 11001111
          456 vlineto
          42 15 21 28 29 14 -21 -42 vhcurveto
          -456 96 473 vlineto
          91 -30 49 -57 -46 -27 -24 -47 -8 vhcurveto
          -24 hlineto
          46 -10 -25 25 -39 hhcurveto
          hintmask 10101111
          -39 -24 -24 -45 -6 hvcurveto
          -29 hlineto
          hintmask 10110111
          54 vlineto
          endchar
        </CharString>
        <CharString name="minus">
          -61 callsubr
        </CharString>
        <CharString name="minus.case">
          -62 callsubr
        </CharString>
        <CharString name="multiply">
          154 -96 callsubr
          154 -75 callsubr
        </CharString>
        <CharString name="multiply.case">
          204 -96 callsubr
          204 -75 callsubr
        </CharString>
        <CharString name="n">
          21 -21 524 9 -9 74 -74 89 hstemhm
          108 96 203 96 hintmask 10101100
          -30 callsubr
          388 vlineto
          hintmask 10011100
          92 33 44 68 69 33 -44 -92 vhcurveto
          -388 96 413 vlineto
          125 -56 75 -94 -62 -45 -30 -50 -14 vhcurveto
          hintmask 11001100
          -28 hlineto
          hintmask 10101100
          65 vlineto
          endchar
        </CharString>
        <CharString name="nine">
          21 -21 294 78 347 96 hstem
          64 102 268 102 vstem
          302 815 rmoveto
          -147 -91 -103 -166 -148 82 -104 115 26 25 7 12 13 hvcurveto
          22 -14 -167 -299 rlineto
          113 hlineto
          191 349 rlineto
          34 64 18 67 66 vvcurveto
          166 -89 103 -145 vhcurveto
          -136 -269 rmoveto
          106 51 67 83 83 51 -67 -106 -107 -51 -67 -83 -83 -51 67 107 vhcurveto
          endchar
        </CharString>
        <CharString name="notequal">
          176 -102 callsubr
          436 -79 callsubr
        </CharString>
        <CharString name="notequal.case">
          226 -102 callsubr
          486 -79 callsubr
        </CharString>
        <CharString name="numbersign">
          21 -21 206 84 220 84 206 -20 hstem
          44 512 vstem
          321 -107 callsubr
          -80 -87 callsubr
          -103 -84 86 hlineto
          -43 -220 rlineto
          -97 -84 80 hlineto
          -40 -206 rlineto
          80 -88 callsubr
          115 -87 callsubr
          80 -88 callsubr
          103 84 -86 hlineto
          43 220 rlineto
          97 84 -80 -88 callsubr
          -80 -87 callsubr
          -115 hlineto
          -60 -304 rmoveto
          43 220 rlineto
          115 hlineto
          -43 -220 rlineto
          endchar
        </CharString>
        <CharString name="o">
          -82 callsubr
        </CharString>
        <CharString name="one">
          0 90 620 90 0 -20 hstemhm
          278 99 hintmask 10110000
          377 -107 callsubr
          -127 hlineto
          -152 -100 rlineto
          -118 vlineto
          hintmask 11010000
          180 128 rlineto
          -620 -180 -90 444 90 -165 vlineto
          endchar
        </CharString>
        <CharString name="p">
          -46 callsubr
          104 90 -90 96 236 96 hintmask 11010110
          348 613 rmoveto
          -61 -43 -30 -54 -16 hvcurveto
          hintmask 11100110
          -28 69 -96 -798 96 268 28 hlineto
          -53 16 43 -30 61 hhcurveto
          119 65 112 202 hvcurveto
          hintmask 11010110
          202 -65 112 -119 vhcurveto
          hintmask 11011010
          -154 -314 -70 callsubr
        </CharString>
        <CharString name="parenleft">
          -146 1052 hstem
          213 96 vstem
          478 820 rmoveto
          86 vlineto
          -166 -86 -100 -198 1 -242 1 -242 100 -198 164 -86 rrcurveto
          86 vlineto
          -107 72 -61 158 -1 210 -1 210 61 158 109 72 rrcurveto
          endchar
        </CharString>
        <CharString name="parenright">
          -146 1052 hstem
          291 96 vstem
          122 906 rmoveto
          -86 vlineto
          109 -72 61 -158 -1 -210 -1 -210 -61 -158 -107 -72 rrcurveto
          -86 vlineto
          164 86 100 198 1 242 1 242 -100 198 -166 86 rrcurveto
          endchar
        </CharString>
        <CharString name="percent">
          -64 callsubr
          hintmask 11111101
          38 160 rmoveto
          524 393 rlineto
          87 vlineto
          -524 -393 rlineto
          24 401 rmoveto
          -111 43 -57 83 83 43 57 111 110 -43 57 -83 -83 -43 -57 -110 vhcurveto
          86 hmoveto
          56 13 28 27 27 14 -28 -56 -56 -14 -29 -27 -27 -13 29 56 vhcurveto
          hintmask 11111011
          138 -496 rmoveto
          -110 43 -57 83 83 43 57 110 111 -43 57 -83 -83 -43 -57 -111 vhcurveto
          85 hmoveto
          56 14 29 27 27 13 -29 -56 -56 -13 -28 -27 -27 -14 28 56 vhcurveto
          endchar
        </CharString>
        <CharString name="percent.cv01">
          -15 83 -47 -21 317 83 0 83 249 83 -15 -20 -37 callsubr
          hintmask 1010101011000000
          412 -15 rmoveto
          88 38 64 147 142 -38 62 -88 -88 -38 -62 -142 -147 38 -64 88 hvcurveto
          -350 619 rmoveto
          hintmask 0001101100000000
          -142 38 -62 88 88 38 62 142 147 -38 64 -88 vhcurveto
          hintmask 1010101011000000
          -88 -38 -64 -147 hvcurveto
          hintmask 0101101100000000
          30 -604 rmoveto
          75 hlineto
          95 340 rlineto
          -70 hlineto
          -44 264 rmoveto
          89 12 39 28 28 13 -39 -89 -84 -13 -37 -28 -28 -12 37 84 vhcurveto
          190 -144 rmoveto
          70 hlineto
          hintmask 1010010011000000
          100 340 rlineto
          -75 hlineto
          -62 -604 rmoveto
          84 13 37 28 28 12 -37 -84 -89 -12 -39 -28 -28 -13 39 89 vhcurveto
          endchar
        </CharString>
        <CharString name="percent.cv02">
          -64 callsubr
          hintmask 11111011
          412 -15 rmoveto
          83 43 57 110 111 -43 57 -83 -83 -43 -57 -111 -110 43 -57 83 hvcurveto
          -350 663 rmoveto
          -111 43 -57 83 vhcurveto
          hintmask 11111101
          83 43 57 111 110 -43 57 -83 hvcurveto
          hintmask 11111011
          -83 -43 -57 -110 hvcurveto
          30 -663 rmoveto
          416 704 rlineto
          126 vlineto
          -416 -704 rlineto
          56 537 rmoveto
          56 13 28 27 vhcurveto
          hintmask 11111101
          27 14 -28 -56 -56 -14 -29 -27 hvcurveto
          hintmask 11111011
          -27 -13 29 56 hvcurveto
          223 -496 rmoveto
          56 14 29 27 27 13 -29 -56 -56 -13 -28 -27 -27 -14 28 56 vhcurveto
          endchar
        </CharString>
        <CharString name="period">
          -8 178 -157 -21 hstemhm
          229 142 hintmask 01100000
          -36 callsubr
          hintmask 10100000
          59 -24 30 -47 -105 callsubr
          vhcurveto
          hintmask 01100000
          -106 callsubr
          endchar
        </CharString>
        <CharString name="plus">
          306 88 hstem
          256 88 vstem
          88 306 rmoveto
          168 -168 88 168 168 88 -168 168 -88 -168 -168 hlineto
          endchar
        </CharString>
        <CharString name="plus.case">
          356 88 168 -20 hstem
          256 88 vstem
          88 356 rmoveto
          168 -168 88 168 168 88 -168 168 -88 -168 -168 hlineto
          endchar
        </CharString>
        <CharString name="q">
          -46 callsubr
          68 -89 callsubr
          -90 90 hintmask 11011100
          252 613 rmoveto
          -119 -65 -112 -202 -202 65 -112 119 61 43 30 53 16 hvcurveto
          28 -268 96 hlineto
          hintmask 11101100
          798 -96 vlineto
          hintmask 11011100
          -69 -28 vlineto
          54 -16 -43 30 -61 hhcurveto
          -88 -314 -91 callsubr
          vhcurveto
          hintmask 11011010
          -45 callsubr
          hintmask 11011100
          -23 callsubr
        </CharString>
        <CharString name="question">
          -7 159 567 96 hstem
          215 142 65 102 vstem
          233 218 rmoveto
          100 hlineto
          -2 176 193 -1 213 vvcurveto
          130 -81 79 -133 -135 -86 -86 -153 -17 vhcurveto
          106 hlineto
          91 6 48 52 78 hhcurveto
          70 42 -43 -70 -179 -191 11 2 -220 hvcurveto
          -18 -146 -63 callsubr
        </CharString>
        <CharString name="quotedbl">
          -100 callsubr
          160 88 104 88 vstem
          151 848 rmoveto
          18 -382 rlineto
          70 hlineto
          18 382 rlineto
          86 hmoveto
          -42 callsubr
          endchar
        </CharString>
        <CharString name="quotedblbase">
          -8 178 hstemhm
          103 151 -63 63 69 -103 callsubr
          hintmask 10101000
          174 -8 -83 callsubr
        </CharString>
        <CharString name="quotedblleft">
          488 178 hstemhm
          126 63 -63 151 69 63 -63 151 hintmask 11010000
          426 666 rmoveto
          -67 callsubr
          -74 25 -35 55 vhcurveto
          hintmask 11001000
          47 24 30 59 hvcurveto
          hintmask 11010000
          58 -24 31 -47 vhcurveto
          -300 -69 rmoveto
          -74 25 -35 55 vhcurveto
          hintmask 10110000
          47 24 30 59 58 -24 31 -47 hvcurveto
          hintmask 11010000
          -67 callsubr
          endchar
        </CharString>
        <CharString name="quotedblright">
          718 178 hstemhm
          104 151 -63 63 69 -103 callsubr
          hintmask 10101000
          175 718 -83 callsubr
        </CharString>
        <CharString name="quoteleft">
          488 178 hstemhm
          220 63 -63 151 hintmask 11000000
          300 666 rmoveto
          -6 -6 -1 -1 -5 hvcurveto
          8 65 32 55 57 52 rrcurveto
          -103 hlineto
          -39 -64 -18 -76 -99 vvcurveto
          -74 25 -35 55 vhcurveto
          hintmask 10100000
          47 24 30 59 hvcurveto
          hintmask 11000000
          58 -24 31 -47 vhcurveto
          endchar
        </CharString>
        <CharString name="quoteright">
          718 178 hstemhm
          229 -103 callsubr
          hintmask 10100000
          300 718 -78 callsubr
          hintmask 11000000
          -104 callsubr
          hintmask 10100000
          -106 callsubr
          endchar
        </CharString>
        <CharString name="quotesinglbase">
          -81 callsubr
        </CharString>
        <CharString name="quotesingle">
          -100 callsubr
          256 88 vstem
          247 848 rmoveto
          -42 callsubr
          endchar
        </CharString>
        <CharString name="r">
          -101 callsubr
          -76 18 -18 76 -76 91 hstemhm
          191 96 150 101 hintmask 11000110
          87 598 rmoveto
          -89 104 -420 -87 -89 330 89 -147 256 vlineto
          hintmask 10010110
          121 28 56 59 43 20 -30 -66 vhcurveto
          -86 101 101 vlineto
          hintmask 10001110
          111 -44 61 -81 vhcurveto
          hintmask 10100110
          -54 -31 -23 -50 -13 hvcurveto
          -28 hlineto
          hintmask 11000110
          58 vlineto
          endchar
        </CharString>
        <CharString name="s">
          -85 callsubr
          hstemhm
          102 93 -89 95 201 94 -79 92 hintmask 11101000
          195 182 rmoveto
          -93 hlineto
          -127 12 72 -70 117 hhcurveto
          117 76 70 109 98 -54 60 -105 18 hvcurveto
          hintmask 11010100
          -53 10 rlineto
          -57 11 -26 26 46 vvcurveto
          58 37 33 62 71 40 -40 -82 6 vhcurveto
          92 hlineto
          134 -8 -77 77 -124 hhcurveto
          -117 -77 -70 -109 -97 55 -61 105 -19 hvcurveto
          hintmask 11011000
          53 -9 rlineto
          57 -10 26 -26 -47 vvcurveto
          -57 -38 -34 -61 vhcurveto
          hintmask 11101000
          -65 -36 36 72 -7 hvcurveto
          endchar
        </CharString>
        <CharString name="section">
          -216 96 840 96 hstemhm
          96 102 -92 102 -73 102 126 102 -73 102 -92 102 hintmask 11001010
          392 614 rmoveto
          102 hlineto
          133 -8 -64 69 -116 hhcurveto
          -106 -65 -67 -111 -66 32 -50 57 -23 hvcurveto
          -28 vlineto
          hintmask 11100100
          -81 -24 -47 -63 -91 vvcurveto
          -95 60 -71 103 -29 vhcurveto
          68 -19 36 -40 -67 vvcurveto
          -57 -28 -35 -44 vhcurveto
          hintmask 11010100
          -51 -28 36 70 -4 hvcurveto
          -102 hlineto
          -133 8 64 -69 116 hhcurveto
          106 65 67 111 66 -32 50 -57 23 hvcurveto
          28 vlineto
          hintmask 11001001
          81 24 47 63 91 vvcurveto
          95 -60 71 -103 29 vhcurveto
          -68 19 -36 40 67 vvcurveto
          57 28 35 44 vhcurveto
          hintmask 11001010
          51 28 -36 -70 4 hvcurveto
          hintmask 11100001
          -194 -314 rmoveto
          69 39 43 63 63 39 -43 -69 -69 -39 -43 -63 -63 -39 43 69 vhcurveto
          endchar
        </CharString>
        <CharString name="semicolon">
          -8 178 -155 -21 433 -35 callsubr
          -142 -103 callsubr
          hintmask 01101000
          300 427 -58 callsubr
          hintmask 10010010
          -80 -605 -50 callsubr
          hintmask 10010100
          -104 callsubr
          hintmask 01010100
          -106 callsubr
          hintmask 01010010
          6 6 1 1 5 hvcurveto
          hintmask 10010010
          -8 -65 -32 -55 -57 -52 rrcurveto
          endchar
        </CharString>
        <CharString name="seven">
          21 -21 704 96 hstem
          419 87 vstem
          506 667 rmoveto
          133 -428 -96 341 vlineto
          -266 -704 rlineto
          105 hlineto
          endchar
        </CharString>
        <CharString name="six">
          -15 96 347 78 294 -20 hstem
          64 102 268 102 vstem
          298 -15 rmoveto
          147 91 103 166 148 -82 104 -115 -26 -25 -7 -12 -13 hvcurveto
          -22 14 167 299 rlineto
          -113 hlineto
          -191 -349 rlineto
          -34 -64 -18 -67 -66 vvcurveto
          -166 89 -103 145 vhcurveto
          -132 269 rmoveto
          107 51 67 83 83 51 -67 -107 -106 -51 -67 -83 -83 -51 67 106 vhcurveto
          endchar
        </CharString>
        <CharString name="slash">
          -38 callsubr
          489 848 rmoveto
          -93 hlineto
          -285 -1018 rlineto
          93 hlineto
          endchar
        </CharString>
        <CharString name="space">
          endchar
        </CharString>
        <CharString name="sterling">
          0 96 250 84 289 96 hstemhm
          88 36 -36 213 -172 102 -32 102 hintmask 11110010
          88 170 rmoveto
          -170 424 96 -388 vlineto
          120 34 57 65 99 vvcurveto
          18 -2 18 -3 16 vhcurveto
          146 84 hlineto
          hintmask 11100100
          -172 hlineto
          -19 49 -20 48 61 vvcurveto
          84 33 47 58 65 34 -48 -103 9 vhcurveto
          102 hlineto
          169 -16 -67 78 -127 hhcurveto
          -123 -70 -82 -145 -66 17 -48 18 -44 hvcurveto
          hintmask 11101000
          -76 -84 hlineto
          hintmask 11100010
          105 hlineto
          4 -16 2 -17 -19 vvcurveto
          hintmask 11110010
          -63 -36 -41 -75 -20 vhcurveto
          endchar
        </CharString>
        <CharString name="t">
          -15 90 434 89 hstemhm
          80 201 -96 96 147 91 hintmask 11010000
          281 750 rmoveto
          -96 -152 hlineto
          hintmask 11100000
          -105 -89 hlineto
          hintmask 11011000
          105 -323 hlineto
          -134 53 -67 105 108 59 74 147 9 vhcurveto
          -91 hlineto
          -89 -7 -26 -42 -48 hhcurveto
          -45 -21 36 75 hvcurveto
          323 223 89 -223 vlineto
          endchar
        </CharString>
        <CharString name="three">
          -15 96 273 93 272 96 hstemhm
          52 105 -101 102 71 191 14 101 -99 102 hintmask 11101010
          535 213 rmoveto
          91 -44 66 -71 17 vhcurveto
          hintmask 11101110
          28 vlineto
          hintmask 11110001
          73 16 45 64 86 vvcurveto
          145 -87 89 -141 -152 -93 -93 -166 -13 vhcurveto
          105 hlineto
          104 11 55 59 87 hhcurveto
          78 48 -52 -85 -83 -47 -52 -77 hvcurveto
          hintmask 11101110
          -83 -93 83 hlineto
          hintmask 11101010
          75 47 -51 -85 -85 -51 -52 -82 -85 -51 55 98 -7 hvcurveto
          -102 hlineto
          -159 9 89 -90 147 hhcurveto
          145 89 87 141 hvcurveto
          endchar
        </CharString>
        <CharString name="two">
          0 96 623 96 hstem
          66 105 270 101 vstem
          337 400 rmoveto
          -257 -268 rlineto
          -132 448 96 -356 vlineto
          227 231 rlineto
          98 97 45 70 92 vvcurveto
          142 -85 87 -140 -148 -91 -93 -166 -12 vhcurveto
          105 hlineto
          104 11 53 59 82 hhcurveto
          77 47 -50 -83 -65 -36 -51 -68 -70 hvcurveto
          endchar
        </CharString>
        <CharString name="u">
          -15 89 -74 74 -9 9 524 -20 hstemhm
          97 96 203 96 hintmask 01011100
          492 hmoveto
          598 -96 -388 vlineto
          hintmask 10011100
          -92 -33 -44 -68 -69 -33 44 92 vhcurveto
          388 -96 -413 vlineto
          -125 56 -75 94 62 45 30 50 14 vhcurveto
          hintmask 00111100
          28 hlineto
          hintmask 01011100
          -65 vlineto
          endchar
        </CharString>
        <CharString name="underscore">
          -121 71 hstem
          70 460 vstem
          70 -50 rmoveto
          -71 460 71 vlineto
          endchar
        </CharString>
        <CharString name="uni0237">
          -215 89 635 89 hstem
          80 94 158 96 vstem
          -74 callsubr
          endchar
        </CharString>
        <CharString name="uni0306.cy">
          -107 880 68 hstem
          26 82 128 82 vstem
          108 1024 rmoveto
          -82 hlineto
          -90 8 54 -54 84 hhcurveto
          84 54 54 90 8 hvcurveto
          -82 hlineto
          -53 -3 -21 -23 -40 hhcurveto
          -40 -21 23 53 -3 hvcurveto
          endchar
        </CharString>
        <CharString name="uni0307">
          -107 692 153 hstem
          10 148 vstem
          84 692 rmoveto
          44 30 29 47 48 -30 29 -44 -44 -30 -29 -48 -47 30 -29 44 hvcurveto
          endchar
        </CharString>
        <CharString name="uni0308">
          -107 869 133 hstem
          -117 114 106 114 vstem
          -60 869 rmoveto
          36 21 25 41 42 -21 25 -36 -36 -21 -25 -42 -41 21 -25 36 hvcurveto
          163 66 rmoveto
          -41 21 -25 36 36 21 25 41 42 -21 25 -36 -36 -21 -25 -42 vhcurveto
          endchar
        </CharString>
        <CharString name="uni043D">
          21 -21 250 90 258 -20 hstem
          108 96 192 96 vstem
          -30 callsubr
          250 192 -250 96 598 -96 -258 -192 258 vlineto
          endchar
        </CharString>
        <CharString name="uni043E">
          -82 callsubr
        </CharString>
        <CharString name="uni2002">
          endchar
        </CharString>
        <CharString name="uni2003">
          endchar
        </CharString>
        <CharString name="uni20BD">
          21 -21 156 81 90 81 -81 89 288 96 hstemhm
          138 96 217 102 hintmask 11011110
          314 800 rmoveto
          -176 hlineto
          hintmask 11101110
          -392 -86 vlineto
          hintmask 11011110
          -81 86 -90 -86 -81 86 -156 96 156 142 81 -142 90 80 vlineto
          148 91 90 147 146 -91 90 -148 hvcurveto
          -80 -384 rmoveto
          288 84 vlineto
          83 50 -55 -89 -89 -50 -55 -83 hvcurveto
          endchar
        </CharString>
        <CharString name="v">
          0 64 534 -20 hstem
          58 484 vstem
          58 598 rmoveto
          170 -598 rlineto
          144 hlineto
          170 598 rlineto
          -94 hlineto
          -146 -534 -145 534 rlineto
          endchar
        </CharString>
        <CharString name="w">
          0 61 -61 69 485 44 hstemhm
          28 543 hintmask 10110000
          28 598 rmoveto
          93 -598 rlineto
          132 hlineto
          49 554 49 -554 rlineto
          128 hlineto
          92 598 rlineto
          -97 hlineto
          -62 -537 -41 537 rlineto
          -135 hlineto
          hintmask 01110000
          -44 -529 -61 529 rlineto
          endchar
        </CharString>
        <CharString name="x">
          21 -21 598 -20 hstem
          68 464 vstem
          78 hmoveto
          97 hlineto
          122 249 124 -249 rlineto
          101 hlineto
          -149 294 159 304 rlineto
          -97 hlineto
          -138 -267 -128 267 rlineto
          -101 hlineto
          152 -312 rlineto
          endchar
        </CharString>
        <CharString name="y">
          -215 89 -89 156 109 35 513 -20 hstemhm
          38 518 hintmask 10111000
          38 598 rmoveto
          195 -548 rlineto
          74 hlineto
          -31 -117 rlineto
          -41 -11 -16 -18 -24 hhcurveto
          hintmask 01111000
          -29 -17 21 46 -8 hvcurveto
          -94 hlineto
          hintmask 10111000
          -101 9 53 -55 86 hhcurveto
          68 47 41 82 22 hvcurveto
          194 690 rlineto
          -103 hlineto
          -137 -513 -173 513 rlineto
          endchar
        </CharString>
        <CharString name="yen">
          0 208 -80 80 91 81 420 -20 hstemhm
          250 100 hintmask 01111000
          152 -107 callsubr
          -109 hlineto
          188 -420 rlineto
          -129 -81 148 -91 -148 -80 148 hlineto
          hintmask 10111000
          -128 100 vlineto
          hintmask 01111000
          128 148 80 -148 91 148 81 -129 vlineto
          188 420 rlineto
          -107 hlineto
          -149 -353 rlineto
          endchar
        </CharString>
        <CharString name="z">
          -101 callsubr
          hstem
          115 52 266 52 vstem
          115 -98 callsubr
          318 vlineto
          -318 -349 rlineto
          -160 370 89 -318 vlineto
          318 349 rlineto
          160 vlineto
          endchar
        </CharString>
        <CharString name="zero">
          -80 callsubr
          64 40 -44 -94 19 vhcurveto
          -259 -257 rlineto
          -1 23 -1 23 26 vvcurveto
          15 -185 rmoveto
          259 257 rlineto
          1 -23 1 -23 -26 vvcurveto
          -22 callsubr
          -64 -40 43 94 -19 vhcurveto
          endchar
        </CharString>
</ttFont>
